<svg width="84" height="26" viewBox="0 0 84 26" fill="none" xmlns="http://www.w3.org/2000/svg">
<path d="M9.42188 13.6943H3.2959L3.2627 11.1211H8.82422C9.74284 11.1211 10.5452 10.9661 11.2314 10.6562C11.9176 10.3464 12.4489 9.90365 12.8252 9.32812C13.2126 8.74154 13.4062 8.04427 13.4062 7.23633C13.4062 6.35091 13.2347 5.63151 12.8916 5.07812C12.5596 4.51367 12.0449 4.10417 11.3477 3.84961C10.6615 3.58398 9.78711 3.45117 8.72461 3.45117H4.00977V25H0.805664V0.828125H8.72461C9.96419 0.828125 11.071 0.955404 12.0449 1.20996C13.0189 1.45345 13.8434 1.84082 14.5186 2.37207C15.2048 2.89225 15.7249 3.55632 16.0791 4.36426C16.4333 5.1722 16.6104 6.14062 16.6104 7.26953C16.6104 8.26562 16.3558 9.16764 15.8467 9.97559C15.3376 10.7725 14.6292 11.4255 13.7217 11.9346C12.8252 12.4437 11.7738 12.7702 10.5674 12.9141L9.42188 13.6943ZM9.27246 25H2.03418L3.84375 22.3936H9.27246C10.2907 22.3936 11.154 22.2165 11.8623 21.8623C12.5817 21.5081 13.1296 21.0101 13.5059 20.3682C13.8822 19.7152 14.0703 18.946 14.0703 18.0605C14.0703 17.1641 13.9098 16.3893 13.5889 15.7363C13.2679 15.0833 12.7643 14.5798 12.0781 14.2256C11.3919 13.8714 10.5065 13.6943 9.42188 13.6943H4.85645L4.88965 11.1211H11.1318L11.8125 12.0508C12.9746 12.1504 13.9596 12.4824 14.7676 13.0469C15.5755 13.6003 16.1898 14.3086 16.6104 15.1719C17.042 16.0352 17.2578 16.987 17.2578 18.0273C17.2578 19.5326 16.9258 20.8053 16.2617 21.8457C15.6087 22.875 14.6846 23.6608 13.4893 24.2031C12.2939 24.7344 10.8883 25 9.27246 25ZM37.6484 22.3936V25H25.5625V22.3936H37.6484ZM26.1934 0.828125V25H22.9893V0.828125H26.1934ZM59.832 12.1504V13.6777C59.832 15.4928 59.6051 17.1198 59.1514 18.5586C58.6976 19.9974 58.0446 21.2204 57.1924 22.2275C56.3402 23.2347 55.3164 24.0039 54.1211 24.5352C52.9368 25.0664 51.6087 25.332 50.1367 25.332C48.709 25.332 47.3975 25.0664 46.2021 24.5352C45.0179 24.0039 43.9886 23.2347 43.1143 22.2275C42.251 21.2204 41.5814 19.9974 41.1055 18.5586C40.6296 17.1198 40.3916 15.4928 40.3916 13.6777V12.1504C40.3916 10.3353 40.624 8.71387 41.0889 7.28613C41.5648 5.84733 42.2344 4.62435 43.0977 3.61719C43.9609 2.59896 44.9847 1.82422 46.1689 1.29297C47.3643 0.761719 48.6758 0.496094 50.1035 0.496094C51.5755 0.496094 52.9036 0.761719 54.0879 1.29297C55.2832 1.82422 56.307 2.59896 57.1592 3.61719C58.0225 4.62435 58.681 5.84733 59.1348 7.28613C59.5996 8.71387 59.832 10.3353 59.832 12.1504ZM56.6611 13.6777V12.1172C56.6611 10.6784 56.5117 9.4056 56.2129 8.29883C55.9251 7.19206 55.499 6.26237 54.9346 5.50977C54.3701 4.75716 53.6784 4.18717 52.8594 3.7998C52.0514 3.41243 51.1328 3.21875 50.1035 3.21875C49.1074 3.21875 48.2054 3.41243 47.3975 3.7998C46.6006 4.18717 45.9144 4.75716 45.3389 5.50977C44.7744 6.26237 44.3372 7.19206 44.0273 8.29883C43.7174 9.4056 43.5625 10.6784 43.5625 12.1172V13.6777C43.5625 15.1276 43.7174 16.4115 44.0273 17.5293C44.3372 18.6361 44.7799 19.5713 45.3555 20.335C45.9421 21.0876 46.6338 21.6576 47.4307 22.0449C48.2386 22.4323 49.1406 22.626 50.1367 22.626C51.1771 22.626 52.1012 22.4323 52.9092 22.0449C53.7171 21.6576 54.3978 21.0876 54.9512 20.335C55.5156 19.5713 55.9417 18.6361 56.2295 17.5293C56.5173 16.4115 56.6611 15.1276 56.6611 13.6777ZM83.4932 12.9639V21.8125C83.1943 22.2552 82.7184 22.7533 82.0654 23.3066C81.4124 23.849 80.5104 24.3249 79.3594 24.7344C78.2194 25.1328 76.7474 25.332 74.9434 25.332C73.4714 25.332 72.1156 25.0775 70.876 24.5684C69.6475 24.0482 68.5794 23.2956 67.6719 22.3105C66.7754 21.3145 66.0781 20.1081 65.5801 18.6914C65.0931 17.2637 64.8496 15.6478 64.8496 13.8438V11.9678C64.8496 10.1637 65.0599 8.55339 65.4805 7.13672C65.9121 5.72005 66.543 4.51921 67.373 3.53418C68.2031 2.53809 69.2214 1.78548 70.4277 1.27637C71.6341 0.756185 73.0176 0.496094 74.5781 0.496094C76.4264 0.496094 77.9704 0.817057 79.21 1.45898C80.4606 2.08984 81.4346 2.96419 82.1318 4.08203C82.8402 5.19987 83.2939 6.47266 83.4932 7.90039H80.2891C80.1452 7.02604 79.8574 6.22917 79.4258 5.50977C79.0052 4.79036 78.402 4.21484 77.6162 3.7832C76.8304 3.34049 75.8177 3.11914 74.5781 3.11914C73.4603 3.11914 72.4919 3.32389 71.6729 3.7334C70.8538 4.1429 70.1787 4.72949 69.6475 5.49316C69.1162 6.25684 68.7178 7.18099 68.4521 8.26562C68.1976 9.35026 68.0703 10.5732 68.0703 11.9346V13.8438C68.0703 15.2383 68.2308 16.4834 68.5518 17.5791C68.8838 18.6748 69.3542 19.61 69.9629 20.3848C70.5716 21.1484 71.2965 21.7295 72.1377 22.1279C72.9899 22.5264 73.9307 22.7256 74.96 22.7256C76.0999 22.7256 77.0241 22.6315 77.7324 22.4434C78.4408 22.2441 78.9941 22.0117 79.3926 21.7461C79.791 21.4694 80.0954 21.2093 80.3057 20.9658V15.5537H74.7109V12.9639H83.4932Z" fill="#EA4809"/>
</svg>
