<svg width="274" height="276" viewBox="0 0 274 276" fill="none" xmlns="http://www.w3.org/2000/svg">
<path fill-rule="evenodd" clip-rule="evenodd" d="M146.66 260.214L147.116 274.912L142.25 275.064C137.17 275.223 134.44 272.229 134.308 267.956C134.174 263.685 136.714 260.526 141.793 260.367L146.661 260.214H146.66ZM119.696 259.385L130.093 260.373L128.716 275.012L118.511 274.044L118.704 272L126.516 272.743L126.906 268.593L120.64 267.999L120.826 266.017L127.092 266.613L127.509 262.187L119.505 261.427L119.696 259.385ZM153.964 259.277L155.843 273.861L153.46 274.173L151.58 259.589L153.964 259.277ZM165.177 257.16L173.553 270.344L171.085 270.902L164.351 259.801L164.268 259.821L162.865 272.759L160.499 273.294L162.479 257.77L165.177 257.161V257.16ZM144.322 262.34L141.964 262.415C138.074 262.535 136.727 265.038 136.814 267.879C136.903 270.721 138.403 273.131 142.292 273.009L144.651 272.936L144.322 262.34ZM109.935 257.204C114.227 258.177 116.342 261.965 115.385 266.238C114.424 270.513 110.897 273.019 106.605 272.045C102.394 271.091 100.177 267.281 101.135 263.008C102.094 258.734 105.725 256.25 109.935 257.204ZM103.562 263.559C102.875 266.622 104.232 269.317 107.072 269.961C109.893 270.6 112.264 268.772 112.956 265.688C113.648 262.602 112.288 259.927 109.468 259.289C106.626 258.643 104.249 260.493 103.562 263.557V263.559ZM190.502 248.213L196.251 261.733L194.042 262.681L191.602 256.943L184.837 259.849L187.277 265.587L185.048 266.545L179.3 253.027L181.529 252.067L184.035 257.964L190.8 255.058L188.294 249.163L190.502 248.215V248.213ZM81.9985 254.042L84.4952 255.183L83.4039 257.594L80.9072 256.454L81.9985 254.042ZM209.354 245.766C211.59 249.503 210.798 253.776 207.097 256.013C204.091 257.831 201.14 257.296 199.103 255.011L201.198 253.743C202.588 255.072 204.216 255.26 206.001 254.182C208.445 252.704 208.878 249.822 207.222 247.055C205.6 244.345 202.812 243.337 200.442 244.77C198.511 245.937 198.006 247.416 198.521 249.273L196.426 250.541C195.373 247.661 196.339 244.755 199.363 242.927C203.046 240.702 207.084 241.974 209.354 245.766ZM58.4414 232.051L60.8352 233.864L56.2672 245.145L56.3362 245.197L65.861 237.67L68.2563 239.482L62.5138 253.538L60.4762 251.996L65.4484 240.566L65.3808 240.515L55.587 248.294L53.4466 246.673L58.1456 235.039L58.0795 234.986L48.6068 243.012L46.6367 241.52L58.4414 232.051ZM212.872 233.855L220.617 243.857L224.575 240.757L225.814 242.361L215.984 250.053L214.745 248.451L218.72 245.34L210.975 235.339L212.872 233.855ZM226.904 221.008L233.182 235.374L231.153 237.352L217.06 230.606L218.876 228.837L222.249 230.521L226.737 226.144L225.165 222.705L226.904 221.008ZM45.192 219.164L46.9719 220.97L45.3328 224.377L49.7333 228.841L53.1368 227.224L54.8435 228.954L40.6211 235.418L38.6327 233.398L45.192 219.164ZM227.61 228.092L224.144 231.471L230.502 234.651L230.563 234.592L227.61 228.092ZM44.4076 226.293L41.3111 232.716L41.3716 232.777L47.8041 229.738L44.4076 226.293ZM237.519 207.645L251.446 213.572L249.888 215.603L238.567 210.479L238.516 210.547L246.151 220.48L244.516 222.613L232.986 217.76L232.934 217.828L240.815 227.438L239.31 229.403L230.018 217.43L231.848 215.044L243.025 219.76L243.077 219.692L235.69 210.032L237.52 207.645H237.519ZM40.4169 213.099L41.9123 214.99L32.0439 222.878L35.1672 226.827L33.5859 228.089L25.8297 218.286L27.4111 217.024L30.5471 220.987L40.4169 213.099ZM32.7466 201.52C34.9997 205.195 33.776 209.266 30.0289 211.589C26.3352 213.875 22.0784 213.122 19.8126 209.429C17.9736 206.427 18.4749 203.456 20.7251 201.384L22.0094 203.476C20.6998 204.887 20.5308 206.524 21.6235 208.308C23.1176 210.745 25.9888 211.153 28.7235 209.459C31.4018 207.8 32.3763 204.989 30.9259 202.622C29.743 200.693 28.2686 200.202 26.4254 200.74L25.1439 198.648C27.9969 197.558 30.8963 198.499 32.748 201.52H32.7466ZM22.4698 181.452L23.4471 183.682L17.6117 186.266L20.5773 193.032L26.4127 190.447L27.3815 192.656L13.9969 198.584L13.0281 196.376L18.7086 193.858L15.743 187.093L10.0625 189.609L9.08524 187.38L22.4698 181.452ZM253.338 191.469L255.726 192.594L254.563 195.092L252.174 193.969L253.337 191.469H253.338ZM2.10216 162.786L17.5666 164.602L18.2017 167.307L5.1804 175.871L4.59883 173.396L15.567 166.506L15.5473 166.422L2.6612 165.157L2.10216 162.786ZM264.654 160.567C268.894 161.579 271.351 165.151 270.335 169.456C269.339 173.676 265.523 175.862 261.283 174.851C257.043 173.839 254.611 170.165 255.608 165.943C256.623 161.64 260.414 159.556 264.654 160.567ZM257.677 166.437C257.004 169.284 258.817 171.693 261.858 172.419C264.898 173.143 267.594 171.811 268.266 168.962C268.934 166.135 267.142 163.73 264.081 163C261.018 162.271 258.343 163.609 257.677 166.437ZM15.6416 153.661L15.9754 156.053L1.48538 158.1L1.14883 155.708L15.6416 153.661ZM258.982 145.697L273.528 147.23L272.461 157.474L270.431 157.261L271.247 149.418L267.126 148.983L266.468 155.273L264.502 155.067L265.158 148.775L260.761 148.312L259.923 156.346L257.894 156.132L258.982 145.697ZM14.7573 143.864L14.9657 148.753L0.353218 149.378L0.14481 144.49C-0.070639 139.387 2.87665 136.61 7.12226 136.428C11.3707 136.245 14.5419 138.761 14.7573 143.864ZM7.23069 138.947C4.40591 139.067 2.0233 140.603 2.18946 144.509L2.28944 146.879L12.8239 146.427L12.7239 144.058C12.5578 140.151 10.0541 138.825 7.23069 138.947ZM273.63 128.756L273.731 133.651C273.838 138.76 270.83 141.475 266.578 141.564C262.325 141.655 259.207 139.067 259.1 133.959L258.998 129.065L273.628 128.756H273.63ZM271.639 131.215L261.092 131.437L261.139 133.81C261.221 137.721 263.697 139.101 266.526 139.042C269.353 138.984 271.768 137.499 271.688 133.587L271.639 131.215ZM0.908035 120.599L2.94283 120.769L2.28803 128.624L6.41959 128.973L6.94342 122.67L8.91485 122.836L8.38961 129.138L12.7972 129.508L13.466 121.46L15.4994 121.63L14.6292 132.085L0.0546875 130.861L0.908035 120.599ZM272.674 119.984L272.957 122.381L258.429 124.111L258.147 121.712L272.674 119.984ZM11.6903 103.003C15.9529 103.92 18.465 107.541 17.5624 111.784C16.6429 116.11 12.8971 118.278 8.63463 117.361C4.37212 116.444 1.83742 112.926 2.75836 108.6C3.65959 104.358 7.42783 102.086 11.6903 103.003ZM269.367 102.15L269.894 104.637L258.784 111.279L258.799 111.364L271.65 112.912L272.155 115.296L256.74 113.137L256.164 110.42L269.367 102.148V102.15ZM4.83681 109.048C4.23271 111.89 6.0774 114.254 9.15424 114.917C12.2325 115.577 14.8784 114.179 15.4839 111.337C16.0923 108.474 14.2264 106.106 11.1707 105.449C8.11361 104.791 5.44654 106.185 4.83681 109.048ZM261.054 79.2403L261.973 81.4724L256.236 83.8615L259.053 90.6922L264.789 88.3044L265.719 90.5549L252.202 96.1825L251.275 93.932L257.167 91.4777L254.351 84.6457L248.458 87.0999L247.538 84.8693L261.054 79.2417V79.2403ZM18.0102 82.582L20.4224 83.6535L19.3155 86.1757L16.9034 85.1057L18.0102 82.5835V82.582ZM255.487 68.2881C257.261 71.3311 256.697 74.2907 254.4 76.3147L253.164 74.193C254.501 72.8102 254.707 71.1783 253.652 69.3708C252.21 66.8982 249.347 66.4311 246.576 68.0644C243.861 69.6638 242.828 72.4564 244.227 74.8526C245.368 76.8073 246.833 77.331 248.686 76.8342L249.925 78.9544C247.047 79.9806 244.168 78.9771 242.381 75.9156C240.208 72.1917 241.52 68.1451 245.317 65.906C249.062 63.7008 253.302 64.5458 255.487 68.2881ZM32.4861 47.9929L42.0292 59.7604L40.2493 62.1863L28.9784 57.7137L28.9277 57.7817L36.5163 67.2789L34.7377 69.7049L20.6913 64.0787L22.2051 62.0151L33.6309 66.8939L33.6802 66.8231L25.8382 57.0584L27.4294 54.8929L39.0538 59.4957L39.1045 59.4249L31.0216 49.9886L32.4861 47.9929ZM242.105 49.3106L249.656 59.2806L248.048 60.5119L244.995 56.4781L234.957 64.158L233.501 62.2359L243.539 54.556L240.499 50.542L242.105 49.3106ZM235.231 41.8345L237.178 43.8953L230.313 57.9897L228.571 56.1455L230.282 52.7726L225.979 48.2151L222.539 49.7578L220.869 47.99L235.231 41.8331V41.8345ZM40.4704 39.8601L54.7027 46.2986L52.9242 48.1075L49.5164 46.4968L45.1244 50.9694L46.7705 54.372L45.0666 56.1058L38.4821 41.8826L40.4704 39.8601ZM234.427 44.4601L227.928 47.3574L231.251 50.8774L234.484 44.5209L234.427 44.4586V44.4601ZM41.1773 42.5436L41.1181 42.6045L44.2105 49.0374L47.6027 45.5867L41.1773 42.5436ZM213.734 23.2477L215.739 24.8329L210.52 36.1518L210.588 36.2041L220.546 28.6417L222.652 30.3076L217.7 41.8359L217.767 41.8897L227.41 34.0768L229.346 35.6097L217.34 44.8167L214.985 42.9513L219.797 31.774L219.731 31.7216L210.044 39.0377L207.691 37.1737L213.735 23.2477H213.734ZM55.3547 26.83L56.6305 28.4054L52.7228 31.6027L60.6832 41.434L58.8187 42.9583L50.857 33.1271L46.9648 36.3117L45.6904 34.7364L55.3547 26.8286V26.83ZM72.1386 21.5039L70.07 22.816C68.6506 21.5181 67.0213 21.3638 65.2583 22.4834C62.8503 24.012 62.4772 26.9036 64.1923 29.6325C65.8722 32.3076 68.6815 33.2559 71.0191 31.7711C72.9257 30.5624 73.3989 29.0734 72.8426 27.2263L74.9084 25.9143C76.0251 28.7705 75.1211 31.6961 72.1372 33.5899C68.5041 35.897 64.4387 34.7109 62.0871 30.9686C59.7721 27.2815 60.4719 22.9943 64.1233 20.6774C67.0903 18.7935 70.0517 19.2634 72.1386 21.5039ZM85.9315 9.66142L91.9768 23.0495L89.7702 24.0545L87.1341 18.2174L80.4355 21.2732L83.0715 27.1117L80.8847 28.1095L74.838 14.7214L77.0249 13.7236L79.592 19.4049L86.2906 16.3477L83.7235 10.6678L85.9315 9.66142ZM191.483 17.2804L193.955 18.4764L192.811 20.8628L190.34 19.6696L191.483 17.2804ZM110.321 2.37785L108.686 17.9414L106.002 18.6109L97.3362 5.61766L99.7921 5.0048L106.768 15.9514L106.853 15.9316L107.968 2.96381L110.32 2.37785H110.321ZM164.231 2.44578C168.463 3.30634 170.765 7.06843 169.9 11.3627C169.036 15.6598 165.46 18.2259 161.227 17.3654C156.911 16.4878 154.715 12.747 155.578 8.45126C156.442 4.15557 159.915 1.56825 164.231 2.44578ZM117.334 1.35311L119.529 15.8891L117.155 16.2514L114.958 1.71403L117.334 1.35311ZM142.052 -0.0297241L152.276 0.717599L152.129 2.76425L144.301 2.19243L144.001 6.34941L150.28 6.80941L150.137 8.79095L143.858 8.33237L143.538 12.7682L151.556 13.3513L151.408 15.3994L140.992 14.6393L142.052 -0.0297241ZM158.018 8.94665C157.394 12.0478 158.815 14.6931 161.65 15.2692C164.506 15.8495 166.842 13.9472 167.463 10.8673C168.082 7.78603 166.666 5.12086 163.81 4.54055C160.974 3.96308 158.642 5.84554 158.018 8.94665ZM136.62 7.14345C136.845 11.4137 134.372 14.6266 129.295 14.8969L124.432 15.1545L123.662 0.468491L128.523 0.209476C133.601 -0.0594472 136.394 2.87464 136.62 7.14486V7.14345ZM128.527 2.26461L126.168 2.38917L126.726 12.9791L129.083 12.8531C132.97 12.6465 134.265 10.1158 134.115 7.27649C133.965 4.43864 132.414 2.05797 128.527 2.26461Z" fill="#EA4809"/>
</svg>
