<svg width="367" height="27" viewBox="0 0 367 27" fill="none" xmlns="http://www.w3.org/2000/svg">
<path d="M107.32 13.1368C107.32 18.3028 110.448 22.0646 115.171 22.0646C119.935 22.0646 123.063 18.2618 123.063 13.1368C123.063 8.02207 119.935 4.21932 115.171 4.21932C110.448 4.21932 107.32 7.98107 107.32 13.1368ZM103.262 13.1368C103.262 5.99257 107.985 0.734324 115.181 0.734324C122.235 0.734324 127.141 5.99257 127.141 13.1368C127.141 20.2811 122.235 25.5496 115.181 25.5496C107.985 25.5496 103.262 20.2811 103.262 13.1368ZM94.8494 25.1293V1.14432H98.7747V25.1293H94.8494ZM77.6045 4.49607H73.7507V21.7776H77.6045C83.9729 21.7776 86.2934 17.7698 86.2934 13.1368C86.2934 8.50382 83.9729 4.49607 77.6045 4.49607ZM69.8254 25.1293V1.14432H77.7885C86.0889 1.14432 90.4027 6.16682 90.4027 13.1368C90.4027 20.1068 86.0889 25.1293 77.7885 25.1293H69.8254ZM44.556 15.5866V1.14432H48.4814V15.5456C48.4814 19.6968 50.4645 22.0646 54.492 22.0646C58.5605 22.0646 60.5129 19.6968 60.5129 15.5456V1.14432H64.4383V15.5866C64.4383 22.8641 60.3698 25.5496 54.492 25.5496C48.6551 25.5496 44.556 22.8641 44.556 15.5866ZM21.4743 4.46532V1.14432H41.8369V4.46532H33.608V25.1293H29.6725V4.46532H21.4743ZM0.171143 18.3028H4.06581C4.06581 20.7731 6.18181 22.4848 9.6267 22.4848C13.2045 22.4848 15.3205 20.9781 15.3205 18.4361C15.3205 12.5116 0.54936 17.2163 0.54936 7.84782C0.54936 3.72732 4.09647 0.734324 9.65736 0.734324C15.0138 0.734324 18.6223 3.34807 18.6223 7.60182H14.7685C14.7685 5.16232 12.5809 3.79907 9.65736 3.79907C6.74403 3.79907 4.48492 5.05982 4.48492 7.45832C4.48492 13.3521 19.3582 8.57557 19.3582 18.1286C19.3582 22.5463 15.8111 25.5496 9.6267 25.5496C3.54448 25.5496 0.171143 22.6898 0.171143 18.3028ZM349.24 25.1293V1.14432H366.004V4.49607H353.175V11.2918H363.469V14.5308H353.175V21.7878H366.3V25.1293H349.24ZM341.215 25.1293L340.694 21.9621H340.592C338.997 24.3606 336.564 25.5496 333.017 25.5496C325.964 25.5496 321.2 20.2503 321.2 13.1368C321.2 5.96182 326.035 0.734324 333.221 0.734324C339.099 0.734324 342.892 4.07582 343.791 8.37057H339.794C339.099 6.13607 337.014 4.21932 333.221 4.21932C328.396 4.21932 325.268 7.90932 325.268 13.1368C325.268 18.3643 328.468 22.0646 333.119 22.0646C337.014 22.0646 340.244 19.7583 340.244 15.8941V15.4738H333.221V12.3066H343.76V25.1293H341.215ZM296.554 25.1293V1.14432H300.204L312.787 18.4361H312.92L312.787 1.14432H316.743V25.1293H313.135L300.48 7.90932H300.347L300.48 25.1293H296.554ZM282.09 5.04957H281.957L278.062 16.0273H285.954L282.09 5.04957ZM270.876 25.1293L279.769 1.14432H284.4L293.293 25.1293H289.153L287.109 19.2971H276.887L274.842 25.1293H270.876ZM247.692 25.1293V1.14432H251.617V11.3226H263.649V1.14432H267.605V25.1293H263.649V14.6641H251.617V25.1293H247.692ZM221.206 13.1368C221.206 6.03357 225.898 0.734324 232.952 0.734324C238.686 0.734324 242.376 3.97332 243.307 8.89332H239.31C238.482 5.85932 236.356 4.21932 232.952 4.21932C228.3 4.21932 225.275 7.87857 225.275 13.1368C225.275 18.3028 228.331 22.0646 232.849 22.0646C236.529 22.0646 238.482 20.4246 239.31 17.3906H243.307C242.376 22.3106 238.584 25.5496 232.819 25.5496C225.796 25.5496 221.206 20.3528 221.206 13.1368ZM199.259 25.1293L207.56 12.8908L199.525 1.14432H204.012L209.829 9.89782L215.594 1.14432H219.867L211.965 12.7986L220.429 25.1293H215.962L209.716 15.8223L203.573 25.1293H199.259ZM180.144 25.1293V1.14432H196.898V4.49607H184.069V11.2918H194.363V14.5308H184.069V21.7878H197.194V25.1293H180.144ZM157.725 2.9965L166.312 11.5245L156.519 11.5552V11.5245L139.908 11.5757L148.443 2.976L145.97 0.526249L135.717 10.8685L133.263 13.3387L135.011 15.071L135.727 15.7885L146.062 26.059L148.515 23.5887L139.928 15.0505L149.721 15.03V15.0505L166.332 15.0095L157.797 23.599L160.271 26.059L171.249 14.989L172.977 13.2465L171.229 11.5142L160.179 0.526249L157.725 2.9965Z" fill="#E94708"/>
</svg>
