<svg width="190" height="194" viewBox="0 0 190 194" fill="none" xmlns="http://www.w3.org/2000/svg">
<path d="M175.721 76.0249L58.2068 5.76471C52.0037 2.04274 44.2454 0.00681166 36.2391 0C16.7332 0 0.919922 11.9041 0.919922 26.5926V167.102C0.919922 173.108 3.61688 178.936 8.5796 183.64C20.7159 195.141 42.9345 197.061 58.2068 187.924L175.728 117.669C177.841 116.406 179.751 114.968 181.42 113.386C193.549 101.885 191.001 85.1562 175.721 76.0249ZM159.641 100.364C159.284 100.7 158.877 101.006 158.426 101.274L40.9118 171.529C40.1441 171.99 39.2581 172.333 38.3066 172.537C37.3551 172.741 36.3574 172.803 35.3729 172.718C34.3885 172.633 33.4373 172.403 32.5759 172.042C31.7146 171.682 30.9607 171.197 30.3591 170.618C29.3034 169.61 28.7325 168.374 28.7362 167.102V26.5926C28.7153 25.1125 29.4933 23.6867 30.8998 22.6277C32.3062 21.5687 34.2263 20.9629 36.2391 20.9432C37.9404 20.9432 39.5868 21.3698 40.9118 22.1653L158.433 92.4198C159.997 93.3698 160.997 94.7297 161.223 96.2121C161.448 97.6944 160.881 99.1831 159.641 100.364Z" fill="#EA4809"/>
</svg>
