<svg width="1410" height="81" viewBox="0 0 1410 81" fill="none" xmlns="http://www.w3.org/2000/svg">
<g clip-path="url(#clip0_15_218)">
<path d="M752.913 79.6352L781.766 1.36485H796.756L825.609 79.6352H812.197L805.547 60.6366H772.411L765.761 79.6352H752.913ZM789.317 14.1062H788.866L776.243 49.9422H801.828L789.318 14.107L789.317 14.1062ZM836.204 79.6352V1.36485H848.038L888.839 57.7919H889.29L888.839 1.36485H901.687V79.6352H889.965L848.94 23.4357H848.489L848.94 79.6352H836.204ZM920.622 79.6352V1.36485H946.432C973.37 1.36485 987.346 17.7471 987.346 40.5C987.346 63.2529 973.37 79.6352 946.432 79.6352H920.622ZM945.868 12.2869H933.358V68.7123H945.868C966.494 68.7123 974.046 55.63 974.046 40.4992C974.046 25.3684 966.494 12.2861 945.868 12.2861V12.2869ZM998.278 57.3375H1010.9C1010.9 65.414 1017.78 70.9884 1028.93 70.9884C1040.54 70.9884 1047.42 66.0968 1047.42 57.7919C1047.42 38.4523 999.518 53.8107 999.518 23.2081C999.518 9.78399 1011.01 0 1029.05 0C1046.4 0 1058.13 8.53254 1058.13 22.4119H1045.62C1045.62 14.448 1038.51 10.0108 1029.05 10.0108C1019.58 10.0108 1012.25 14.107 1012.25 21.9567C1012.25 41.1828 1060.49 25.5968 1060.49 56.768C1060.49 71.216 1049 81 1028.93 81C1009.21 81 998.278 71.6712 998.278 57.3375H998.278ZM1067.37 12.1727V1.36485H1133.42V12.1727H1106.7V79.6352H1093.97V12.1727H1067.37H1067.37ZM1142.21 48.4631V1.36485H1154.94V48.3497C1154.94 61.8872 1161.37 69.6236 1174.44 69.6236C1187.63 69.6236 1193.94 61.8881 1193.94 48.3497V1.36485H1206.67V48.4631C1206.67 72.2399 1193.49 81 1174.44 81C1155.51 81 1142.21 72.2399 1142.21 48.4631ZM1224.15 79.6352V1.36485H1249.95C1276.89 1.36485 1290.87 17.7471 1290.87 40.5C1290.87 63.2529 1276.89 79.6352 1249.95 79.6352H1224.15ZM1249.39 12.2869H1236.88V68.7123H1249.39C1270.02 68.7123 1277.57 55.63 1277.57 40.4992C1277.57 25.3684 1270.02 12.2861 1249.39 12.2861V12.2869ZM1305.29 79.6352V1.36485H1318.03V79.6352H1305.29ZM1332.57 40.5C1332.57 17.1785 1347.9 0 1371.23 0C1394.11 0 1410 17.1785 1410 40.5C1410 63.8215 1394.11 81 1371.23 81C1347.9 81 1332.57 63.8215 1332.57 40.5ZM1345.76 40.5C1345.76 57.3375 1355.9 69.6236 1371.23 69.6236C1386.67 69.6236 1396.81 57.2233 1396.81 40.5C1396.81 23.7767 1386.67 11.3765 1371.23 11.3765C1355.9 11.3765 1345.76 23.6625 1345.76 40.5ZM709.432 12.5647L716.288 5.67L747.225 36.3431L752.107 41.1836L747.26 46.0582L716.54 76.95L709.634 70.1039L733.506 46.0995L687.032 46.2372V46.1546L659.632 46.2356L683.657 70.0545L676.802 76.95L647.887 48.2817L645.864 46.2761L640.982 41.4364L647.837 34.5416L676.548 5.67L683.453 12.5161L659.582 36.5197L706.057 36.382V36.4654L733.457 36.3836L709.432 12.5647ZM68.4498 12.5647L75.3058 5.67L106.243 36.3431L111.125 41.1836L106.277 46.0582L75.5578 76.95L68.6519 70.1039L92.5237 46.0995L46.0493 46.2372V46.1546L18.6497 46.2356L42.6744 70.0545L35.8193 76.95L6.90425 48.2817L4.88145 46.2761L0 41.4364L6.85513 34.5416L35.5657 5.67L42.4707 12.5161L18.5998 36.5197L65.0742 36.382V36.4654L92.4746 36.3836L68.4498 12.5647ZM123.204 79.6117V0H140.003L166.582 61.9075H166.928L193.162 0H209.731V79.6117H196.728L197.764 18.9775H197.304L171.53 79.6117H161.52L135.746 20.0183H135.285L136.206 79.6117H123.204ZM227.565 47.9058V0H240.567V47.79C240.567 61.56 247.126 69.4283 260.473 69.4283C273.935 69.4283 280.379 61.56 280.379 47.79V0H293.381V47.9058C293.381 72.09 279.918 81 260.473 81C241.141 81 227.565 72.09 227.565 47.9058ZM302.47 10.9925V0H369.898V10.9925H342.628V79.6117H329.625V10.9917H302.47V10.9925ZM371.738 10.9925V0H439.165V10.9925H411.895V79.6117H398.893V10.9917H371.738L371.738 10.9925ZM449.751 79.6117V0H461.832L503.484 57.3942H503.944L503.485 0H516.603V79.6117H504.636L462.753 22.4483H462.293L462.753 79.6117H449.751ZM535.932 79.6117V0H548.934V79.6117H535.932ZM568.379 79.6117V0H581.381V40.2683L618.546 0H633.735L601.402 34.4825L635.346 79.6117H620.502L593.003 43.3925L581.381 55.7742V79.6117H568.379Z" fill="#EA4809"/>
</g>
<defs>
<clipPath id="clip0_15_218">
<rect width="1410" height="81" fill="white"/>
</clipPath>
</defs>
</svg>
